<svg xmlns="http://www.w3.org/2000/svg" width="640" height="360" viewBox="0 0 640 360" fill="none">
  <defs>
    <pattern id="terrain-dots" width="9" height="9" patternUnits="userSpaceOnUse">
      <circle cx="1.5" cy="1.5" r="1" fill="#5B9E98" fill-opacity=".34"/>
    </pattern>
    <pattern id="fine-dots" width="14" height="14" patternUnits="userSpaceOnUse">
      <circle cx="2" cy="2" r=".8" fill="#8CBDB7" fill-opacity=".45"/>
    </pattern>
    <clipPath id="brazil-shape">
      <path d="M254 80 276 70 299 73 317 65 339 75 357 70 375 82 396 78 411 91 431 89 443 101 460 107 469 122 461 136 470 149 456 161 454 177 441 188 436 207 420 219 414 238 398 250 388 270 369 279 359 300 341 297 326 316 307 307 289 317 274 305 256 309 250 291 231 283 236 266 220 252 227 237 211 220 224 203 215 186 231 171 222 155 237 141 231 124 247 111 245 96Z"/>
    </clipPath>
    <linearGradient id="land-wash" x1="235" y1="95" x2="454" y2="295" gradientUnits="userSpaceOnUse">
      <stop stop-color="#E9F4F1"/>
      <stop offset="1" stop-color="#F5F8F7"/>
    </linearGradient>
  </defs>

  <g stroke="#A8C9C4" stroke-opacity=".28" stroke-width="1">
    <path d="M42 284H208M50 303H193M76 322H178" stroke-dasharray="2 7"/>
    <path d="M260 57H444M249 333H430" stroke-dasharray="2 8"/>
  </g>

  <g transform="translate(-18 0)" opacity=".72" stroke="#84B4AE" stroke-width="1.2" stroke-linecap="round">
    <path d="M54 262H93L108 246 123 270 141 228 158 255 174 244 193 244"/>
    <path d="M62 279H103L119 271 134 276 151 262 173 270 195 263" stroke-opacity=".45"/>
    <path d="M74 226V282M111 226V282M148 226V282M185 226V282" stroke-opacity=".22" stroke-dasharray="1 5"/>
    <path d="M75 291H193" stroke-opacity=".45"/>
  </g>
  <g transform="translate(-18 0)" fill="#4F928B">
    <circle cx="108" cy="246" r="2.3"/>
    <circle cx="141" cy="228" r="2.8"/>
    <circle cx="174" cy="244" r="2.2"/>
  </g>
  <g transform="translate(-18 0)" stroke="#5B9E98" stroke-opacity=".25">
    <circle cx="141" cy="228" r="7"/>
    <circle cx="141" cy="228" r="12"/>
  </g>

  <g transform="translate(-61 -35) scale(1.18)">
    <path d="M254 80 276 70 299 73 317 65 339 75 357 70 375 82 396 78 411 91 431 89 443 101 460 107 469 122 461 136 470 149 456 161 454 177 441 188 436 207 420 219 414 238 398 250 388 270 369 279 359 300 341 297 326 316 307 307 289 317 274 305 256 309 250 291 231 283 236 266 220 252 227 237 211 220 224 203 215 186 231 171 222 155 237 141 231 124 247 111 245 96Z" fill="url(#land-wash)" stroke="#8CB7B2" stroke-opacity=".72" stroke-width="1.4" stroke-linejoin="round"/>
    <g clip-path="url(#brazil-shape)">
    <path d="M205 61H477V322H205Z" fill="url(#fine-dots)"/>
    <path d="M205 61H477V322H205Z" fill="url(#terrain-dots)" opacity=".68"/>
    <path d="M248 138C288 119 318 129 350 119S407 115 456 131M230 178C280 163 312 179 347 164S413 154 460 172M229 215C274 197 306 215 343 199S400 188 441 205M244 252C278 235 309 250 340 238S390 226 419 241" stroke="#9CC3BE" stroke-opacity=".46" stroke-width=".8"/>
    <path d="M276 70 281 130 271 184 289 239 289 317M317 65 321 121 316 174 326 226 326 316M357 70 352 122 360 172 352 222 359 300M396 78 391 126 400 171 388 219 388 270M431 89 424 132 432 174 420 219" stroke="#A7C9C4" stroke-opacity=".3" stroke-width=".7"/>

    <g stroke="#408A83" stroke-opacity=".43" stroke-width="1">
      <path d="M266 125 292 147 320 132 346 157 370 132 391 143 417 119 442 132"/>
      <path d="M245 166 276 178 301 159 330 184 360 166 384 188 411 165 451 177"/>
      <path d="M244 207 271 193 300 216 326 198 350 224 380 202 405 218 434 193"/>
      <path d="M260 251 288 231 315 257 343 235 368 257 395 235 419 245"/>
      <path d="M292 147 301 159 320 132 330 184 346 157 360 166 370 132 384 188 391 143 411 165 417 119"/>
    </g>

    <path d="M375 103 398 100 411 112 408 133 400 151 383 157 373 145 368 126Z" fill="#C4E1DC" fill-opacity=".84" stroke="#4C918A" stroke-opacity=".8" stroke-width="1.1" stroke-linejoin="round"/>
    <path d="M379 109 397 106 406 116 403 132 397 145 384 149 376 139 373 124Z" fill="url(#terrain-dots)" opacity=".9"/>

    <g fill="#4F928B">
      <circle cx="266" cy="125" r="2"/><circle cx="292" cy="147" r="2.6"/><circle cx="320" cy="132" r="2"/>
      <circle cx="346" cy="157" r="2.4"/><circle cx="370" cy="132" r="2.1"/><circle cx="391" cy="143" r="2.4"/>
      <circle cx="417" cy="119" r="2.5"/><circle cx="442" cy="132" r="1.8"/><circle cx="245" cy="166" r="1.8"/>
      <circle cx="276" cy="178" r="2.1"/><circle cx="301" cy="159" r="2.6"/><circle cx="330" cy="184" r="2"/>
      <circle cx="360" cy="166" r="2.4"/><circle cx="384" cy="188" r="2.1"/><circle cx="411" cy="165" r="2.7"/>
      <circle cx="451" cy="177" r="1.8"/><circle cx="244" cy="207" r="1.8"/><circle cx="271" cy="193" r="2.3"/>
      <circle cx="300" cy="216" r="2.2"/><circle cx="326" cy="198" r="2.6"/><circle cx="350" cy="224" r="2.1"/>
      <circle cx="380" cy="202" r="2.5"/><circle cx="405" cy="218" r="2"/><circle cx="434" cy="193" r="2.1"/>
      <circle cx="260" cy="251" r="1.8"/><circle cx="288" cy="231" r="2.3"/><circle cx="315" cy="257" r="2.2"/>
      <circle cx="343" cy="235" r="2.5"/><circle cx="368" cy="257" r="2"/><circle cx="395" cy="235" r="2.3"/>
      <circle cx="419" cy="245" r="1.9"/>
    </g>
    <g fill="#317B75">
      <circle cx="382" cy="119" r="2.4"/><circle cx="398" cy="116" r="2.9"/><circle cx="389" cy="132" r="2.5"/>
      <circle cx="401" cy="135" r="2.2"/><circle cx="383" cy="143" r="2"/>
    </g>
    </g>
  </g>

  <g stroke="#5B9E98" stroke-opacity=".32" stroke-width="1">
    <circle cx="398" cy="116" r="7"/>
    <circle cx="398" cy="116" r="12"/>
  </g>
  <g fill="#78AAA4" fill-opacity=".8">
    <circle cx="488" cy="142" r="1.6"/><circle cx="505" cy="159" r="1.2"/>
    <circle cx="476" cy="190" r="1.5"/><circle cx="458" cy="224" r="1.2"/>
    <circle cx="213" cy="195" r="1.4"/><circle cx="202" cy="218" r="1"/>
    <circle cx="224" cy="292" r="1.2"/><circle cx="444" cy="286" r="1.3"/>
  </g>
  <path d="M468 146 488 142 505 159M454 177 476 190 458 224M220 220 213 195 202 218M398 270 421 286 444 286" stroke="#75AAA4" stroke-opacity=".35" stroke-width=".9" stroke-dasharray="2 5"/>
  <g fill="#B9D7D2" fill-opacity=".8">
    <circle cx="254" cy="339" r="1.5"/><circle cx="266" cy="339" r="1"/><circle cx="278" cy="339" r="1.5"/>
    <circle cx="290" cy="339" r="1"/><circle cx="302" cy="339" r="1.5"/><circle cx="314" cy="339" r="1"/>
  </g>
</svg>